<svg width="296" height="62" viewBox="0 0 296 62" fill="none" xmlns="http://www.w3.org/2000/svg">
<circle cx="25" cy="37" r="25" fill="#2B292D"/>
<path d="M84.6875 51.3125C82.8125 51.3125 81.0312 51.125 79.3438 50.75C77.6771 50.3542 76.2083 49.6875 74.9375 48.75C73.6875 47.8125 72.6875 46.5625 71.9375 45C71.2083 43.4375 70.8438 41.4792 70.8438 39.125C70.8438 36.7917 71.1458 34.8229 71.75 33.2188C72.375 31.5938 73.2708 30.2812 74.4375 29.2812C75.625 28.2812 77.0729 27.5625 78.7812 27.125C80.5104 26.6667 82.4792 26.4375 84.6875 26.4375C86.8958 26.4375 88.7917 26.5729 90.375 26.8438C91.9583 27.0938 93.2917 27.4167 94.375 27.8125C95.4792 28.2083 96.375 28.6458 97.0625 29.125C97.7708 29.5833 98.3333 30.0104 98.75 30.4062V18.4062C98.75 18.1354 98.75 17.8646 98.75 17.5938C98.7708 17.3229 98.8229 17.0833 98.9062 16.875C98.9896 16.6667 99.1042 16.5 99.25 16.375C99.4167 16.25 99.6562 16.1875 99.9688 16.1875C100.281 16.1875 100.521 16.25 100.688 16.375C100.854 16.4792 100.979 16.625 101.062 16.8125C101.146 17 101.198 17.2292 101.219 17.5C101.24 17.75 101.25 18.0312 101.25 18.3438V49.3125C101.25 49.9792 101.115 50.4271 100.844 50.6562C100.594 50.8854 100.323 51 100.031 51C99.6771 51 99.375 50.8958 99.125 50.6875C98.875 50.4792 98.75 50.0417 98.75 49.375V45.0312C98.5208 45.9271 98.1146 46.7083 97.5312 47.375C96.9479 48.0208 96.25 48.5729 95.4375 49.0312C94.6458 49.4896 93.7708 49.875 92.8125 50.1875C91.8542 50.4792 90.8854 50.7083 89.9062 50.875C88.9479 51.0417 88.0104 51.1562 87.0938 51.2188C86.1979 51.2812 85.3958 51.3125 84.6875 51.3125ZM84.6875 49.4688C85.9375 49.4479 87.3021 49.3542 88.7812 49.1875C90.2604 49 91.6771 48.6771 93.0312 48.2188C94.3854 47.7604 95.5833 47.125 96.625 46.3125C97.6667 45.5 98.375 44.4375 98.75 43.125V31.875C98.2708 31.5 97.6562 31.1042 96.9062 30.6875C96.1771 30.2708 95.25 29.8854 94.125 29.5312C93.0208 29.1562 91.6875 28.8542 90.125 28.625C88.5833 28.3958 86.7708 28.2812 84.6875 28.2812C82.6875 28.2812 80.9688 28.4896 79.5312 28.9062C78.1146 29.3229 76.9375 29.9792 76 30.875C75.0833 31.75 74.4062 32.875 73.9688 34.25C73.5521 35.6042 73.3438 37.2292 73.3438 39.125C73.3438 41.1042 73.6354 42.7604 74.2188 44.0938C74.8229 45.4062 75.6354 46.4583 76.6562 47.25C77.6771 48.0417 78.875 48.6146 80.25 48.9688C81.6458 49.3021 83.125 49.4688 84.6875 49.4688ZM125 28.2812C123.062 28.2812 121.344 28.4479 119.844 28.7812C118.344 29.1146 117.062 29.6562 116 30.4062C114.958 31.1354 114.146 32.0833 113.562 33.25C112.979 34.4167 112.646 35.8438 112.562 37.5312H136.125V35.8438C136.125 34.8021 135.927 33.8229 135.531 32.9062C135.156 31.9896 134.531 31.1875 133.656 30.5C132.781 29.8125 131.635 29.2708 130.219 28.875C128.802 28.4792 127.062 28.2812 125 28.2812ZM123.375 49.4688C125.354 49.4688 127.083 49.3438 128.562 49.0938C130.042 48.8438 131.312 48.5417 132.375 48.1875C133.438 47.8333 134.302 47.4688 134.969 47.0938C135.656 46.7188 136.188 46.4062 136.562 46.1562C136.688 46.1146 136.771 46.0938 136.812 46.0938C137.042 46.0938 137.25 46.2083 137.438 46.4375C137.646 46.6458 137.75 46.875 137.75 47.125C137.75 47.3542 137.646 47.5417 137.438 47.6875C137.25 47.875 136.844 48.1667 136.219 48.5625C135.615 48.9583 134.74 49.3646 133.594 49.7812C132.448 50.1771 131.031 50.5312 129.344 50.8438C127.656 51.1562 125.656 51.3125 123.344 51.3125C120.927 51.3125 118.875 51.0104 117.188 50.4062C115.5 49.8021 114.125 48.9583 113.062 47.875C112 46.7917 111.229 45.4896 110.75 43.9688C110.271 42.4479 110.031 40.7812 110.031 38.9688C110.031 36.5521 110.417 34.5417 111.188 32.9375C111.958 31.3333 113.01 30.0521 114.344 29.0938C115.698 28.1146 117.281 27.4271 119.094 27.0312C120.927 26.6354 122.896 26.4375 125 26.4375C129.333 26.4375 132.573 27.2708 134.719 28.9375C136.885 30.5833 137.969 32.9479 137.969 36.0312C137.969 36.3229 137.948 36.6458 137.906 37C137.865 37.3542 137.802 37.6979 137.719 38.0312C137.656 38.3438 137.573 38.6146 137.469 38.8438C137.385 39.0521 137.302 39.1562 137.219 39.1562H128.031L112.531 38.8438C112.573 40.7812 112.823 42.4271 113.281 43.7812C113.76 45.1146 114.448 46.2083 115.344 47.0625C116.26 47.8958 117.385 48.5104 118.719 48.9062C120.052 49.2812 121.604 49.4688 123.375 49.4688ZM149.062 48.8125C149.062 49.4167 148.99 49.9375 148.844 50.375C148.698 50.7917 148.365 51 147.844 51C147.531 51 147.292 50.9479 147.125 50.8438C146.958 50.7188 146.833 50.5625 146.75 50.375C146.667 50.1667 146.615 49.9375 146.594 49.6875C146.573 49.4375 146.562 49.1667 146.562 48.875V18.4375C146.562 18.125 146.573 17.8333 146.594 17.5625C146.615 17.2917 146.667 17.0625 146.75 16.875C146.854 16.6667 146.99 16.5 147.156 16.375C147.344 16.25 147.594 16.1875 147.906 16.1875C148.156 16.1875 148.354 16.25 148.5 16.375C148.667 16.5 148.792 16.6667 148.875 16.875C148.958 17.0833 149.01 17.3229 149.031 17.5938C149.052 17.8438 149.062 18.1042 149.062 18.375V48.8125ZM161.938 49.0312C161.938 49.3021 161.927 49.5625 161.906 49.8125C161.885 50.0417 161.833 50.25 161.75 50.4375C161.688 50.6042 161.573 50.7396 161.406 50.8438C161.24 50.9479 161 51 160.688 51C160.104 51 159.75 50.8229 159.625 50.4688C159.5 50.1146 159.438 49.6354 159.438 49.0312V28.9688C159.438 28.4479 159.51 28 159.656 27.625C159.802 27.25 160.167 27.0625 160.75 27.0625C161.271 27.0625 161.594 27.25 161.719 27.625C161.865 28 161.938 28.4271 161.938 28.9062V49.0312ZM159.031 20C159.031 19.5208 159.188 19.125 159.5 18.8125C159.812 18.4792 160.208 18.3125 160.688 18.3125C161.167 18.3125 161.573 18.4792 161.906 18.8125C162.24 19.125 162.406 19.5208 162.406 20C162.406 20.4792 162.24 20.8646 161.906 21.1562C161.573 21.4479 161.167 21.5938 160.688 21.5938C160.208 21.5938 159.812 21.4479 159.5 21.1562C159.188 20.8646 159.031 20.4792 159.031 20ZM183.375 51.3125C182.896 51.3125 182.542 51.1667 182.312 50.875C182.083 50.5833 181.906 50.3229 181.781 50.0938L169.594 29.2812C169.469 29.0729 169.385 28.8854 169.344 28.7188C169.302 28.5312 169.281 28.3542 169.281 28.1875C169.281 27.8333 169.385 27.5625 169.594 27.375C169.802 27.1667 170.052 27.0625 170.344 27.0625C170.573 27.0625 170.812 27.1458 171.062 27.3125C171.312 27.4583 171.531 27.6979 171.719 28.0312L183.375 48.7188L195.031 28.0312C195.219 27.6979 195.438 27.4583 195.688 27.3125C195.938 27.1458 196.177 27.0625 196.406 27.0625C196.698 27.0625 196.948 27.1667 197.156 27.375C197.365 27.5625 197.469 27.8333 197.469 28.1875C197.469 28.5208 197.365 28.8854 197.156 29.2812L184.969 50.0938C184.823 50.3229 184.625 50.5833 184.375 50.875C184.125 51.1667 183.792 51.3125 183.375 51.3125ZM217.562 28.2812C215.625 28.2812 213.906 28.4479 212.406 28.7812C210.906 29.1146 209.625 29.6562 208.562 30.4062C207.521 31.1354 206.708 32.0833 206.125 33.25C205.542 34.4167 205.208 35.8438 205.125 37.5312H228.688V35.8438C228.688 34.8021 228.49 33.8229 228.094 32.9062C227.719 31.9896 227.094 31.1875 226.219 30.5C225.344 29.8125 224.198 29.2708 222.781 28.875C221.365 28.4792 219.625 28.2812 217.562 28.2812ZM215.938 49.4688C217.917 49.4688 219.646 49.3438 221.125 49.0938C222.604 48.8438 223.875 48.5417 224.938 48.1875C226 47.8333 226.865 47.4688 227.531 47.0938C228.219 46.7188 228.75 46.4062 229.125 46.1562C229.25 46.1146 229.333 46.0938 229.375 46.0938C229.604 46.0938 229.812 46.2083 230 46.4375C230.208 46.6458 230.312 46.875 230.312 47.125C230.312 47.3542 230.208 47.5417 230 47.6875C229.812 47.875 229.406 48.1667 228.781 48.5625C228.177 48.9583 227.302 49.3646 226.156 49.7812C225.01 50.1771 223.594 50.5312 221.906 50.8438C220.219 51.1562 218.219 51.3125 215.906 51.3125C213.49 51.3125 211.438 51.0104 209.75 50.4062C208.062 49.8021 206.688 48.9583 205.625 47.875C204.562 46.7917 203.792 45.4896 203.312 43.9688C202.833 42.4479 202.594 40.7812 202.594 38.9688C202.594 36.5521 202.979 34.5417 203.75 32.9375C204.521 31.3333 205.573 30.0521 206.906 29.0938C208.26 28.1146 209.844 27.4271 211.656 27.0312C213.49 26.6354 215.458 26.4375 217.562 26.4375C221.896 26.4375 225.135 27.2708 227.281 28.9375C229.448 30.5833 230.531 32.9479 230.531 36.0312C230.531 36.3229 230.51 36.6458 230.469 37C230.427 37.3542 230.365 37.6979 230.281 38.0312C230.219 38.3438 230.135 38.6146 230.031 38.8438C229.948 39.0521 229.865 39.1562 229.781 39.1562H220.594L205.094 38.8438C205.135 40.7812 205.385 42.4271 205.844 43.7812C206.323 45.1146 207.01 46.2083 207.906 47.0625C208.823 47.8958 209.948 48.5104 211.281 48.9062C212.615 49.2812 214.167 49.4688 215.938 49.4688ZM257.5 27.1875C257.729 27.25 257.896 27.375 258 27.5625C258.104 27.7292 258.156 27.9167 258.156 28.125C258.156 28.3958 258.062 28.6458 257.875 28.875C257.708 29.1042 257.448 29.2188 257.094 29.2188C256.99 29.2188 256.927 29.2188 256.906 29.2188C256.885 29.1979 256.823 29.1771 256.719 29.1562C255.906 28.9271 255.125 28.75 254.375 28.625C253.646 28.5 252.844 28.4375 251.969 28.4375C250.74 28.4375 249.562 28.5625 248.438 28.8125C247.333 29.0417 246.323 29.4062 245.406 29.9062C244.51 30.3854 243.729 31.0104 243.062 31.7812C242.396 32.5312 241.896 33.4167 241.562 34.4375V48.8125C241.562 49.3542 241.49 49.8542 241.344 50.3125C241.198 50.7708 240.865 51 240.344 51C240.052 51 239.812 50.9375 239.625 50.8125C239.458 50.6875 239.333 50.5208 239.25 50.3125C239.167 50.1042 239.115 49.875 239.094 49.625C239.073 49.3542 239.062 49.0833 239.062 48.8125V28.8125C239.062 28.3333 239.146 27.9271 239.312 27.5938C239.479 27.2396 239.865 27.0625 240.469 27.0625C240.927 27.0625 241.219 27.2292 241.344 27.5625C241.49 27.8958 241.562 28.3125 241.562 28.8125V32.4375C241.896 31.1667 242.469 30.1354 243.281 29.3438C244.115 28.5521 245.031 27.9479 246.031 27.5312C247.052 27.0938 248.094 26.8021 249.156 26.6562C250.219 26.5104 251.156 26.4375 251.969 26.4375C252.76 26.4375 253.438 26.4688 254 26.5312C254.583 26.5729 255.083 26.6354 255.5 26.7188C255.917 26.7812 256.281 26.8542 256.594 26.9375C256.906 27.0208 257.208 27.1042 257.5 27.1875ZM277.781 59.5938C279.927 59.5938 281.719 59.3542 283.156 58.875C284.594 58.4167 285.74 57.6458 286.594 56.5625C287.469 55.5 288.083 54.0729 288.438 52.2812C288.812 50.5104 289 48.3125 289 45.6875C288.771 46.5417 288.396 47.2708 287.875 47.875C287.354 48.4792 286.729 48.9896 286 49.4062C285.292 49.8229 284.51 50.1562 283.656 50.4062C282.823 50.6562 281.969 50.8542 281.094 51C280.219 51.125 279.354 51.2083 278.5 51.25C277.667 51.2917 276.896 51.3125 276.188 51.3125C273.938 51.3125 272.042 51.1146 270.5 50.7188C268.958 50.3021 267.708 49.6146 266.75 48.6562C265.792 47.6771 265.094 46.3958 264.656 44.8125C264.24 43.2292 264.031 41.2604 264.031 38.9062V29.3125C264.031 29.0417 264.042 28.7708 264.062 28.5C264.083 28.2292 264.135 27.9896 264.219 27.7812C264.302 27.5729 264.417 27.4062 264.562 27.2812C264.729 27.1354 264.958 27.0625 265.25 27.0625C265.562 27.0625 265.802 27.1354 265.969 27.2812C266.135 27.4062 266.26 27.5729 266.344 27.7812C266.427 27.9896 266.479 28.2292 266.5 28.5C266.521 28.7708 266.531 29.0417 266.531 29.3125V38.9062C266.531 40.9479 266.656 42.6458 266.906 44C267.177 45.3542 267.667 46.4375 268.375 47.25C269.083 48.0625 270.062 48.6354 271.312 48.9688C272.583 49.3021 274.208 49.4688 276.188 49.4688C277.375 49.4688 278.646 49.3854 280 49.2188C281.354 49.0521 282.635 48.75 283.844 48.3125C285.073 47.875 286.146 47.2708 287.062 46.5C288 45.7292 288.646 44.7292 289 43.5V29.3125C289 29.0417 289.01 28.7708 289.031 28.5C289.073 28.2292 289.135 27.9896 289.219 27.7812C289.302 27.5729 289.417 27.4062 289.562 27.2812C289.729 27.1354 289.938 27.0625 290.188 27.0625C290.5 27.0625 290.74 27.1354 290.906 27.2812C291.073 27.4062 291.198 27.5729 291.281 27.7812C291.385 27.9896 291.448 28.2292 291.469 28.5C291.49 28.7708 291.5 29.0417 291.5 29.3125V44.6562C291.5 47.8646 291.24 50.5417 290.719 52.6875C290.219 54.8333 289.417 56.5521 288.312 57.8438C287.208 59.1562 285.792 60.0833 284.062 60.625C282.333 61.1667 280.24 61.4375 277.781 61.4375C276.031 61.4375 274.552 61.3438 273.344 61.1562C272.156 60.9688 271.146 60.7292 270.312 60.4375C269.5 60.1667 268.823 59.8542 268.281 59.5C267.74 59.1458 267.271 58.8125 266.875 58.5C266.708 58.3333 266.625 58.1354 266.625 57.9062C266.625 57.6146 266.698 57.3646 266.844 57.1562C267.01 56.9688 267.26 56.875 267.594 56.875C267.76 56.875 267.938 56.9375 268.125 57.0625C268.521 57.3542 268.979 57.6458 269.5 57.9375C270.042 58.25 270.688 58.5208 271.438 58.75C272.208 59 273.104 59.1979 274.125 59.3438C275.167 59.5104 276.385 59.5938 277.781 59.5938Z" fill="black"/>
</svg>
